<?xml version="1.0" standalone="no"?>
<!DOCTYPE svg PUBLIC "-//W3C//DTD SVG 20010904//EN"
 "http://www.w3.org/TR/2001/REC-SVG-20010904/DTD/svg10.dtd">
<svg version="1.0" xmlns="http://www.w3.org/2000/svg"
 width="5001.000000pt" height="3751.000000pt" viewBox="0 0 5001.000000 3751.000000"
 preserveAspectRatio="xMidYMid meet">

<g transform="translate(0.000000,3751.000000) scale(0.100000,-0.100000)"
fill="#000000" stroke="none">
<path d="M33105 30073 c-644 -44 -1351 -318 -2085 -806 -325 -217 -430 -313
-499 -456 -64 -135 -52 -298 29 -416 75 -108 216 -204 360 -242 88 -23 262
-23 350 1 36 10 124 49 195 86 163 85 241 110 349 110 132 0 218 -51 292 -171
102 -169 147 -395 199 -1002 28 -328 46 -477 76 -609 20 -93 57 -200 86 -249
16 -27 21 -29 83 -29 36 0 128 7 205 15 77 8 146 15 154 15 8 0 -2 16 -22 40
-49 53 -82 122 -111 227 -29 106 -65 334 -73 460 -8 126 6 160 103 253 78 74
134 105 217 120 145 28 311 -74 389 -240 46 -97 59 -154 59 -259 1 -164 -47
-292 -172 -457 -38 -51 -69 -98 -69 -106 0 -12 42 -180 100 -403 59 -229 120
-414 162 -499 82 -163 249 -245 501 -246 160 0 267 17 472 77 309 89 453 161
566 280 45 47 46 50 68 173 77 435 270 1026 503 1539 85 189 129 305 154 409
21 90 29 261 15 348 -23 149 -102 341 -224 543 l-50 84 34 30 c19 16 81 74
139 127 58 54 118 109 134 122 l29 25 -49 14 c-55 16 -161 18 -311 5 -69 -6
-103 -6 -103 1 0 6 18 48 39 94 43 92 91 244 91 290 0 34 3 33 -46 13 -27 -11
-91 -19 -204 -24 -105 -6 -181 -14 -209 -24 -57 -21 -55 -21 -69 18 -19 52
-129 174 -228 253 -433 344 -1007 509 -1629 466z"/>
<path d="M16087 30063 c-4 -3 -7 -260 -7 -570 l0 -563 270 0 270 0 0 -1560 0
-1560 1398 0 c1100 1 1394 3 1381 13 -27 20 -51 77 -80 187 -15 58 -35 130
-44 160 -8 30 -26 93 -39 140 -13 47 -38 137 -55 200 -18 63 -41 149 -52 190
-12 41 -32 113 -46 160 -14 47 -38 135 -54 195 -16 61 -38 139 -49 175 -21 69
-77 269 -135 485 -20 72 -44 159 -54 195 -11 36 -35 124 -54 195 -35 130 -75
273 -147 525 -83 289 -113 400 -146 530 l-35 135 -6 381 -6 381 -286 6 c-377
9 -2016 9 -2024 0z"/>
<path d="M12437 28923 c-4 -3 -7 -208 -7 -455 0 -420 -1 -448 -17 -448 -15 0
-15 2 -4 9 8 6 -239 10 -607 10 -579 2 -621 1 -624 -15 -2 -10 -2 -512 0
-1116 l2 -1098 655 0 c430 0 655 3 655 10 0 6 7 10 16 10 8 0 12 -4 9 -10 -4
-6 7 -10 25 -10 17 0 29 3 27 8 -3 4 8 7 25 8 20 1 25 -2 16 -7 -7 -5 719 -9
1615 -9 l1627 0 0 1555 0 1555 -775 0 -775 0 0 -230 0 -230 -122 0 -123 0 0
227 0 228 -150 6 c-206 9 -1460 11 -1468 2z m74 -923 c30 -3 54 -9 54 -15 0
-15 -87 -19 -96 -4 -4 7 -31 14 -61 15 -36 2 -47 0 -33 -6 16 -7 13 -9 -17 -9
-27 -1 -38 -5 -38 -16 0 -11 11 -15 40 -15 41 0 53 -13 23 -24 -60 -23 -63
-28 -63 -96 0 -39 5 -71 12 -78 10 -10 10 -17 1 -31 -15 -23 -16 -321 -1 -321
6 0 9 46 6 129 -3 118 -2 130 14 134 10 3 21 1 24 -4 3 -5 -1 -9 -9 -9 -11 0
-15 -23 -16 -115 -1 -79 2 -115 10 -115 7 0 10 34 7 110 -2 69 1 110 7 110 6
1 86 0 178 0 97 0 166 3 163 8 -8 14 19 46 33 38 6 -4 9 -12 6 -17 -4 -5 1 -9
9 -9 8 0 17 8 19 18 3 10 5 6 6 -10 1 -19 -4 -28 -14 -28 -8 0 -15 -5 -15 -11
0 -6 9 -9 20 -6 24 6 25 1 5 -19 -9 -9 -15 -11 -15 -4 0 6 -4 9 -9 5 -5 -3
-11 7 -13 22 -2 14 -9 29 -17 31 -8 3 -11 0 -7 -7 4 -6 8 -70 9 -142 l1 -130
-177 0 c-97 0 -181 1 -187 1 -5 0 -7 7 -4 15 4 8 1 15 -5 15 -6 0 -11 -4 -11
-10 0 -5 -8 -10 -17 -11 -14 0 -15 -2 -3 -6 8 -3 22 -11 30 -18 8 -6 26 -12
39 -13 35 -2 38 -11 11 -32 -24 -18 -24 -18 -36 10 -17 39 -54 31 -54 -11 0
-16 5 -29 10 -29 6 0 10 -7 10 -15 0 -8 -4 -15 -10 -15 -7 0 -10 -247 -10
-720 0 -713 0 -720 -20 -720 -20 0 -20 7 -20 1104 l0 1104 36 -10 c21 -5 48
-8 61 -5 13 2 26 1 29 -4 8 -13 34 2 35 20 0 12 2 11 8 -4 6 -16 20 -21 62
-25z m185 20 c62 0 94 -4 94 -11 0 -8 -39 -9 -127 -5 -71 3 -143 5 -161 6 -22
0 -31 4 -26 11 4 8 27 9 67 5 33 -3 102 -6 153 -6z m2172 -172 l3 -148 -181 0
-180 0 0 143 c0 79 3 147 7 151 4 3 84 5 177 4 l171 -3 3 -147z m-2373 92 c-3
-5 -15 -15 -27 -21 -15 -8 -19 -8 -14 0 4 6 0 12 -11 12 -10 1 -2 5 17 9 19 4
36 8 38 9 2 0 0 -3 -3 -9z m162 -3 c3 -4 -17 -7 -45 -7 -28 0 -53 4 -56 8 -6
10 91 9 101 -1z m-254 -211 c18 -27 30 -76 19 -76 -25 0 -52 34 -52 66 0 40
11 44 33 10z m57 4 c0 -11 -4 -20 -10 -20 -5 0 -10 9 -10 20 0 11 5 20 10 20
6 0 10 -9 10 -20z m217 -16 c-3 -3 -12 -4 -19 -1 -8 3 -5 6 6 6 11 1 17 -2 13
-5z m-33 -23 c3 -5 14 -7 24 -4 13 3 18 -2 18 -16 0 -20 -6 -21 -113 -21
l-113 0 16 25 c15 23 22 25 90 25 40 0 75 -4 78 -9z m140 -273 c-4 -6 -10 -5
-15 3 -7 11 -9 10 -9 -4 0 -10 8 -30 17 -45 15 -24 16 -25 1 -14 -9 7 -18 9
-20 5 -1 -4 -84 -5 -183 -2 l-180 6 178 -1 177 -1 0 31 c0 17 3 33 6 37 10 9
35 -4 28 -15z m-304 -78 c0 -5 -2 -10 -4 -10 -3 0 -8 5 -11 10 -3 6 -1 10 4
10 6 0 11 -4 11 -10z m200 0 c0 -5 -4 -10 -9 -10 -6 0 -13 5 -16 10 -3 6 1 10
9 10 9 0 16 -4 16 -10z m-170 -10 c0 13 1 13 10 0 9 -13 10 -13 10 0 0 13 1
13 10 0 9 -13 10 -13 10 0 0 13 1 13 10 0 9 -13 10 -13 10 0 0 13 1 13 10 0 9
-13 10 -13 10 0 0 13 1 13 10 0 9 -13 10 -13 10 0 1 12 2 12 10 -2 7 -11 30
-19 75 -23 36 -4 65 -12 65 -17 0 -6 -7 -7 -16 -4 -8 3 -12 2 -9 -4 3 -6 2
-10 -4 -10 -5 0 -13 5 -16 10 -4 6 -53 10 -116 10 l-109 0 0 28 c0 21 2 24 10
12 9 -13 10 -13 10 0z m-50 -34 c0 -3 -4 -8 -10 -11 -5 -3 -10 -1 -10 4 0 6 5
11 10 11 6 0 10 -2 10 -4z m-70 -21 c0 -8 -4 -15 -9 -15 -13 0 -22 16 -14 24
11 11 23 6 23 -9z m58 -1452 c-21 -2 -57 -2 -80 0 -24 2 -7 4 37 4 44 0 63 -2
43 -4z"/>
<path d="M12295 26919 c0 -599 3 -1089 7 -1089 12 0 15 2169 3 2174 -7 2 -10
-364 -10 -1085z"/>
<path d="M18651 28904 c0 -11 3 -14 6 -6 3 7 2 16 -1 19 -3 4 -6 -2 -5 -13z"/>
<path d="M16023 28393 c-10 -3 -13 -46 -13 -164 l0 -159 245 0 245 0 -2 163
-3 162 -230 1 c-126 1 -236 0 -242 -3z"/>
<path d="M31095 27569 c7 -68 40 -247 47 -254 2 -2 28 3 58 11 79 20 244 33
408 32 78 -1 145 1 148 5 8 8 53 211 47 217 -9 10 -405 50 -557 57 l-158 6 7
-74z"/>
<path d="M31306 27194 c6 -57 -6 -103 -61 -236 -6 -15 -1 -18 32 -18 22 0 60
7 86 16 l47 16 0 67 c0 69 -19 153 -42 183 -7 9 -25 20 -40 24 l-28 6 6 -58z"/>
<path d="M18530 25285 c-25 -47 -48 -85 -51 -85 -4 0 -31 16 -60 36 -65 43
-153 84 -198 92 -33 5 -33 4 -21 -19 7 -13 28 -48 47 -77 135 -214 216 -473
258 -828 56 -482 -43 -1036 -261 -1464 -64 -124 -63 -122 -138 -225 -92 -125
-184 -209 -298 -273 -59 -34 -169 -78 -225 -91 -29 -7 -53 -14 -53 -16 0 -1
11 -56 24 -121 14 -66 34 -177 45 -249 12 -71 24 -145 27 -162 l5 -33 -266 0
-265 0 0 -160 0 -160 70 0 c62 0 70 -2 70 -19 0 -10 29 -317 65 -682 36 -365
65 -673 65 -686 0 -17 -4 -21 -17 -17 -17 5 -17 5 0 -6 9 -6 22 -8 27 -5 6 3
10 -2 10 -12 1 -16 2 -16 10 -2 8 14 35 17 196 18 220 2 324 -6 324 -25 0 -17
37 -37 52 -28 6 4 8 3 4 -4 -3 -6 2 -25 13 -44 41 -71 63 -159 64 -258 1 -109
-14 -181 -54 -261 -15 -31 -25 -60 -21 -64 4 -5 3 -6 -3 -3 -16 9 -55 -10 -55
-26 0 -9 -16 -18 -42 -24 -28 -7 461 -10 1400 -11 1401 -1 1444 0 1480 18 99
51 151 159 159 326 5 111 -12 220 -40 254 -6 7 -12 19 -13 26 -4 28 -68 95
-110 114 -43 21 -55 21 -1164 21 l-1120 0 0 33 c0 17 4 79 10 137 5 58 30 335
55 615 24 281 47 534 50 563 l6 52 65 0 64 0 0 160 0 160 -305 0 c-191 0 -305
4 -305 10 0 15 115 365 175 530 59 163 60 165 175 247 127 90 240 177 236 180
-4 5 -219 -73 -259 -94 -28 -14 -29 -14 -22 9 5 13 57 136 117 273 186 423
253 602 309 822 l24 93 153 -1 c84 -1 155 1 158 3 4 4 -146 50 -255 78 -40 11
-43 13 -37 38 4 15 9 108 13 207 4 142 2 200 -11 275 -43 247 -154 488 -300
647 l-49 54 22 99 c13 54 21 105 19 114 -1 9 -23 -22 -48 -69z"/>
<path d="M17207 25168 c11 -13 64 -78 117 -146 54 -68 104 -126 112 -129 8 -3
29 2 47 10 17 9 44 19 60 22 15 4 27 10 27 14 0 3 -29 24 -65 46 -36 22 -118
77 -182 123 -116 82 -154 102 -116 60z"/>
<path d="M35230 25160 c-470 -41 -762 -102 -1095 -228 -277 -105 -611 -313
-929 -581 -45 -37 -108 -88 -141 -113 -33 -25 -67 -55 -76 -65 -9 -11 -83 -43
-165 -73 -163 -58 -379 -142 -434 -170 -19 -9 -77 -29 -127 -43 -158 -45 -291
-121 -424 -244 -145 -133 -279 -311 -365 -487 -141 -288 -557 -1766 -1064
-3781 -71 -286 -133 -528 -136 -537 -4 -14 -17 -18 -59 -18 -50 0 -54 2 -59
28 -3 15 -172 1107 -375 2427 -260 1686 -376 2418 -391 2458 -52 139 -171 252
-330 314 -43 17 -255 18 -4050 21 -3984 2 -4005 2 -4071 -18 -131 -39 -218
-159 -227 -310 -3 -65 17 -187 152 -915 85 -462 194 -1049 241 -1305 47 -256
99 -535 115 -620 16 -85 70 -375 119 -645 50 -269 142 -771 206 -1115 112
-609 116 -627 157 -710 49 -101 140 -198 233 -246 60 -32 170 -66 255 -78 25
-4 1451 -4 3170 1 1719 4 3114 9 3100 11 -199 27 -559 123 -1085 287 -198 62
-414 121 -522 141 l-92 18 62 36 c358 211 440 255 517 281 l85 28 -2565 1
c-1974 1 -2577 4 -2615 13 -111 27 -233 116 -297 216 -37 59 -50 105 -92 336
-42 224 -268 1460 -366 1995 -103 559 -240 1309 -316 1715 -36 198 -66 387
-66 421 -1 136 95 252 239 289 50 13 517 15 3780 15 2672 0 3737 -3 3775 -11
161 -34 318 -169 359 -312 5 -18 36 -207 70 -422 33 -214 93 -606 134 -870
496 -3203 475 -3062 464 -3125 -6 -30 -17 -67 -25 -82 -21 -41 -73 -97 -114
-123 -81 -50 -71 -50 -652 -55 l-548 -5 86 -75 c47 -41 101 -83 120 -93 34
-17 73 -79 74 -116 0 -7 12 -39 26 -71 24 -53 29 -58 57 -58 18 0 43 -5 57
-10 14 -5 70 -18 125 -27 83 -15 173 -18 530 -20 283 -1 457 -6 510 -14 95
-15 189 -38 510 -124 530 -143 780 -193 1040 -210 39 -2 40 -3 37 -35 -10 -99
-186 -484 -333 -727 -98 -162 -173 -266 -258 -357 l-71 -76 -7 -141 -6 -141
-1709 0 c-1412 0 -1714 -2 -1741 -14 -68 -28 -120 -111 -159 -256 -31 -111
-31 -391 0 -503 38 -138 92 -225 159 -253 27 -12 166 -14 773 -14 l740 0 1
-35 c1 -19 2 -43 3 -52 1 -15 -44 -33 -234 -99 -839 -288 -1646 -646 -2100
-932 -307 -193 -498 -376 -551 -527 -32 -90 -43 -340 -29 -638 13 -297 26
-424 79 -787 70 -480 128 -926 206 -1580 212 -1783 284 -2267 505 -3430 128
-676 191 -1037 290 -1674 33 -208 61 -381 64 -383 4 -5 98 3 286 22 25 3 245
25 490 50 558 57 588 60 594 66 2 2 23 144 45 314 23 171 72 542 111 825 166
1219 213 1763 214 2460 0 432 -7 578 -44 910 -40 349 -85 573 -204 1011 -118
436 -236 924 -236 975 0 12 128 14 898 14 l897 0 356 -291 356 -291 32 -265
c18 -146 31 -267 28 -269 -2 -2 -69 -20 -148 -39 -201 -50 -316 -88 -447 -152
-116 -56 -210 -130 -251 -197 -70 -113 -34 -261 98 -399 65 -69 101 -93 161
-106 154 -34 351 107 590 423 23 31 45 55 47 52 2 -2 24 -170 48 -372 56 -466
125 -978 170 -1277 78 -506 134 -825 289 -1647 106 -562 223 -1257 292 -1729
12 -84 22 -125 32 -129 13 -5 739 63 790 74 l23 5 -3 -203 c-2 -112 -1 -212 2
-223 5 -19 -6 -21 -230 -41 -555 -51 -2099 -190 -2875 -259 -462 -41 -857 -78
-877 -81 -34 -5 -37 -3 -53 29 -26 56 -124 152 -185 183 -172 86 -383 15 -760
-256 -186 -133 -252 -157 -286 -105 -14 22 -16 44 -11 143 4 64 15 154 25 200
10 45 16 82 12 82 -24 0 -277 -175 -445 -308 -66 -53 -160 -128 -210 -167 -49
-39 -135 -107 -189 -151 -55 -43 -109 -84 -120 -90 -14 -9 -628 -12 -2325 -13
-1268 0 -2857 -5 -3530 -11 -673 -6 -1226 -9 -1227 -7 -2 2 7 145 21 318 14
173 41 514 60 759 106 1347 205 2592 211 2642 l6 56 105 4 105 3 38 43 c51 57
60 106 30 167 -15 31 -35 53 -64 70 l-43 25 -1779 -2 -1779 -3 -37 -25 c-70
-48 -90 -143 -43 -213 39 -56 69 -67 185 -67 71 0 102 -4 105 -13 6 -17 202
-2401 240 -2912 9 -121 18 -238 20 -260 17 -175 47 -616 42 -621 -3 -4 -164
-9 -357 -12 l-350 -5 0 -41 c0 -23 -2 -99 -4 -171 -2 -71 -5 -174 -5 -227 l-1
-98 -88 0 -89 0 -6 107 c-4 58 -7 177 -7 265 l0 158 -132 0 c-210 0 -2082 -41
-2718 -60 -184 -5 -427 -12 -540 -15 -327 -9 -1204 -39 -1600 -55 -650 -26
-790 -32 -854 -38 l-70 -7 -1 -40 c0 -22 -2 -102 -3 -177 l-2 -138 -88 0 -89
0 -6 107 c-4 58 -7 137 -7 176 l0 69 -107 -6 c-60 -3 -196 -11 -303 -16 -1079
-57 -1885 -141 -2043 -212 -55 -25 -61 -54 -15 -76 203 -97 1424 -198 3273
-272 138 -5 297 -12 355 -15 58 -3 242 -10 410 -15 168 -6 433 -14 590 -20
157 -5 371 -12 475 -15 105 -3 260 -8 345 -10 85 -3 427 -12 760 -20 333 -8
700 -17 815 -20 727 -19 2587 -49 4230 -70 3323 -41 9160 -41 12380 0 1935 25
3488 51 4240 70 116 3 482 12 815 20 333 8 682 17 775 20 94 3 321 10 505 15
770 23 2113 75 2560 100 823 46 838 47 1325 86 572 46 905 92 1035 142 33 13
54 38 45 53 -32 51 -347 105 -930 159 -247 22 -1052 76 -1245 82 l-75 3 -3
-168 -2 -168 -93 3 -92 3 0 171 0 172 -125 6 c-391 20 -1005 46 -1085 46 -51
0 -107 3 -124 6 -28 6 -31 10 -31 45 l0 39 130 0 130 0 0 235 c0 129 -3 235
-7 235 -18 0 -726 72 -1078 110 -209 22 -423 45 -475 50 -109 12 -793 84
-1270 135 -179 19 -559 60 -845 90 -1337 141 -1177 120 -1163 154 25 63 25
106 2 464 -13 205 -30 478 -39 607 -56 881 -104 1637 -175 2759 -11 173 -20
327 -20 343 l0 28 74 0 74 0 -5 62 c-6 100 -53 1048 -53 1085 0 28 4 33 24 33
87 0 438 84 674 161 180 59 477 167 665 241 112 44 137 58 190 108 l62 57 110
-19 c435 -75 731 -142 829 -186 64 -28 86 -52 304 -330 116 -147 275 -305 347
-345 70 -40 149 -60 199 -53 88 14 174 81 247 193 116 178 82 326 -104 451
-277 184 -843 309 -1768 388 l-77 6 58 77 c66 88 292 426 435 651 54 85 105
163 113 172 14 17 92 18 1296 20 l1281 3 88 28 c225 70 374 192 467 379 48 99
70 193 70 308 0 200 -52 341 -179 490 -59 68 -198 160 -297 195 -43 16 -80 29
-82 30 -11 8 115 1323 201 2095 l32 285 251 5 251 5 36 28 c86 65 150 204 172
370 l6 47 237 1 c130 1 249 0 263 -1 l26 -1 6 257 c4 142 7 326 7 411 l0 153
-306 0 -306 0 4 -209 c2 -116 0 -207 -4 -205 -4 3 -8 10 -8 16 0 23 -74 110
-114 133 -41 24 -49 25 -219 25 -97 0 -178 3 -180 8 -2 4 9 106 24 227 28 224
54 445 204 1720 302 2575 405 3733 405 4539 0 406 -30 708 -81 812 -41 87
-178 183 -444 313 -533 262 -1308 492 -1865 555 -374 42 -1986 81 -2280 56z
m-18066 -17642 c6 -35 9 -66 111 -1153 36 -379 74 -780 85 -890 11 -110 22
-241 25 -290 3 -50 10 -128 15 -175 5 -47 10 -98 10 -113 l0 -28 -117 3 -118
3 -16 185 c-39 437 -209 2459 -209 2484 0 3 47 6 105 6 l104 0 5 -32z m428
-548 c14 -316 33 -735 42 -930 9 -195 19 -398 21 -450 8 -128 25 -591 25 -662
l0 -58 -70 0 c-60 0 -70 3 -71 18 0 9 -6 71 -14 137 -7 66 -40 406 -74 755
-34 349 -72 750 -86 890 -14 140 -36 377 -50 525 -14 149 -28 289 -31 313 l-5
43 143 -3 143 -3 27 -575z m348 -482 c0 -585 -3 -1188 -7 -1340 l-6 -278 -57
0 -58 0 -6 133 c-4 72 -11 200 -17 282 -5 83 -18 350 -29 595 -11 245 -29 632
-40 860 -11 228 -22 483 -25 565 -4 83 -8 169 -10 192 -1 23 0 44 3 47 3 3 61
6 129 6 l123 0 0 -1062z m324 555 c-3 -280 -9 -845 -14 -1258 -6 -412 -10
-787 -10 -832 l0 -83 -89 0 -89 0 -4 233 c-8 386 -9 2433 -2 2440 4 4 54 7
110 7 l103 0 -5 -507z m324 -173 c2 -371 0 -973 -4 -1337 l-6 -663 -106 0
-105 0 7 1332 c4 732 10 1336 12 1340 3 5 49 7 102 6 l97 -3 3 -675z m367 578
c-3 -57 -22 -431 -41 -833 -19 -401 -45 -950 -59 -1220 -13 -269 -24 -498 -25
-507 0 -15 -10 -18 -58 -18 l-59 0 -6 767 c-9 983 -9 1898 0 1906 3 4 62 7
130 7 l124 0 -6 -102z m405 99 c0 -19 -73 -760 -79 -812 -6 -38 -15 -122 -20
-185 -6 -63 -31 -329 -56 -590 -25 -261 -57 -594 -70 -740 -14 -146 -28 -284
-31 -307 l-5 -43 -70 0 -69 0 0 43 c0 23 9 229 20 457 11 228 24 534 29 680
15 403 61 1409 67 1458 l5 42 140 0 c76 0 139 -1 139 -3z m322 -64 c-2 -32
-50 -632 -106 -1333 l-101 -1275 -124 -3 -123 -3 6 58 c12 110 246 2584 246
2599 0 11 20 14 103 14 l103 0 -4 -57z m17918 -3404 l0 -22 -312 8 c-172 4
-495 13 -718 20 l-405 12 718 2 717 1 0 -21z m-3587 -301 c21 -31 54 -71 73
-87 22 -20 34 -39 34 -56 0 -25 0 -25 -89 -25 -76 0 -89 2 -93 18 -2 9 -5 89
-6 177 l-2 160 23 -65 c12 -36 39 -91 60 -122z"/>
<path d="M17890 24862 c0 -5 -16 -35 -36 -68 -54 -88 -123 -228 -130 -261 -4
-24 2 -35 45 -78 48 -46 51 -48 51 -25 0 26 8 65 53 255 35 153 40 185 27 185
-5 0 -10 -4 -10 -8z"/>
<path d="M18294 24001 c-5 -5 -40 -19 -79 -31 -38 -12 -114 -41 -167 -64 l-98
-41 0 -72 c0 -76 7 -86 37 -54 10 10 72 57 138 104 145 102 202 151 188 160
-5 3 -14 2 -19 -2z"/>
<path d="M17080 23702 l-205 -3 75 -25 c41 -13 127 -38 189 -55 l115 -31 27
34 c15 18 35 45 44 61 16 27 16 27 -12 25 -15 -2 -120 -4 -233 -6z"/>
<path d="M28125 23570 c-3 -5 -1 -10 4 -10 6 0 11 5 11 10 0 6 -2 10 -4 10 -3
0 -8 -4 -11 -10z"/>
<path d="M28411 23554 c0 -11 3 -14 6 -6 3 7 2 16 -1 19 -3 4 -6 -2 -5 -13z"/>
<path d="M28422 23510 c0 -14 2 -19 5 -12 2 6 2 18 0 25 -3 6 -5 1 -5 -13z"/>
<path d="M28124 23465 c4 -16 12 -34 17 -40 5 -5 4 6 -2 25 -15 45 -24 54 -15
15z"/>
<path d="M17934 22995 c-64 -135 -94 -209 -94 -232 0 -16 77 -103 91 -103 3 0
10 28 13 62 4 34 16 103 27 152 21 101 36 236 25 236 -4 0 -32 -52 -62 -115z"/>
<path d="M17411 23029 c-18 -21 -38 -36 -44 -32 -6 3 -7 1 -3 -6 5 -7 -12 -30
-45 -59 -92 -81 -189 -175 -185 -179 2 -2 79 33 171 79 l167 83 -7 70 c-4 38
-10 73 -14 77 -3 3 -21 -11 -40 -33z"/>
<path d="M23522 21639 c-65 -16 -68 -31 -38 -185 13 -71 39 -212 56 -314 33
-197 47 -241 86 -259 34 -15 113 -14 212 4 101 17 145 38 198 91 44 44 57 80
43 127 -9 31 -57 107 -68 107 -3 0 -21 13 -40 28 l-33 28 21 35 c23 37 27 93
11 150 -15 55 -79 121 -155 159 -60 31 -77 34 -159 37 -50 1 -110 -3 -134 -8z
m253 -154 c99 -58 84 -143 -31 -164 -92 -17 -97 -13 -115 95 -8 52 -13 97 -10
100 13 14 115 -6 156 -31z m102 -333 c23 -12 49 -32 57 -44 15 -21 15 -24 -2
-39 -23 -22 -105 -48 -174 -56 l-56 -6 -10 54 c-6 30 -13 69 -16 88 l-6 34 82
-5 c59 -3 95 -11 125 -26z"/>
<path d="M27859 21630 c-120 -63 -208 -263 -197 -448 9 -151 57 -241 155 -289
52 -25 69 -28 153 -28 83 1 102 4 146 27 52 27 112 86 137 135 8 15 20 55 27
88 7 33 17 64 22 70 17 19 8 66 -18 92 -26 26 -26 26 -142 19 -243 -15 -337
-62 -291 -145 24 -42 59 -48 136 -23 38 12 85 24 106 28 32 5 37 4 37 -13 0
-33 -55 -108 -93 -126 -21 -10 -60 -17 -97 -17 -54 0 -65 3 -90 28 -52 53 -65
193 -27 299 25 71 90 167 124 182 24 11 56 4 139 -30 50 -21 54 -21 78 -5 30
19 35 65 10 91 -39 39 -166 85 -233 85 -25 -1 -62 -9 -82 -20z"/>
<path d="M26827 21622 c-21 -23 -22 -73 -3 -138 21 -70 52 -248 71 -399 23
-185 29 -204 70 -221 24 -9 42 -11 58 -5 47 18 47 44 3 301 -18 107 -32 197
-30 199 2 2 84 -74 182 -170 298 -292 386 -353 438 -302 22 22 16 120 -25 378
-50 318 -89 398 -175 366 -31 -12 -34 -48 -12 -122 16 -54 79 -407 74 -420 -7
-20 -282 243 -499 479 -58 63 -71 72 -101 72 -21 0 -41 -7 -51 -18z"/>
<path d="M25689 21606 c-9 -19 -6 -64 15 -203 15 -98 37 -252 50 -341 22 -150
26 -166 52 -193 29 -30 61 -37 95 -19 23 13 24 44 5 155 -8 44 -13 82 -10 84
2 2 36 -23 76 -55 136 -111 230 -164 292 -164 73 0 63 116 -12 135 -31 8 -141
83 -234 160 l-68 55 90 112 c98 121 140 188 140 222 0 35 -36 66 -75 66 -38 0
-42 -5 -175 -178 -40 -52 -74 -91 -78 -88 -3 3 -12 57 -19 118 -16 132 -32
158 -95 158 -31 0 -41 -5 -49 -24z"/>
<path d="M24329 21607 c-41 -16 -84 -44 -116 -79 -27 -29 -78 -132 -88 -177
-12 -57 -7 -165 10 -226 36 -121 168 -228 315 -254 166 -30 290 31 359 178 24
51 26 67 26 181 0 107 -4 133 -23 183 -32 78 -101 147 -177 177 -74 29 -247
38 -306 17z m274 -143 c59 -28 92 -105 92 -214 0 -87 -19 -147 -63 -197 -70
-81 -235 -65 -319 30 -42 48 -57 97 -50 173 8 105 63 191 140 221 42 17 153 9
200 -13z"/>
<path d="M25105 21596 c-129 -60 -203 -205 -193 -374 6 -98 40 -176 103 -237
110 -106 306 -152 432 -100 119 49 204 223 189 385 -21 233 -152 350 -390 350
-74 0 -100 -4 -141 -24z m291 -132 c26 -13 47 -34 64 -64 22 -40 25 -57 25
-145 0 -85 -4 -107 -24 -148 -12 -26 -39 -60 -59 -75 -31 -24 -44 -27 -111
-27 -88 0 -144 25 -193 85 -86 108 -41 315 82 378 37 20 56 23 111 19 37 -2
84 -13 105 -23z"/>
<path d="M26257 21592 c-23 -25 -21 -54 4 -86 19 -24 27 -26 93 -26 l73 0 7
-67 c4 -38 18 -137 32 -222 14 -84 23 -160 20 -167 -4 -9 -22 -14 -56 -14 -82
0 -115 -51 -67 -105 l22 -26 210 7 c200 7 210 8 232 30 30 30 29 50 -6 85 -28
27 -34 29 -108 29 l-79 0 -27 173 c-14 94 -29 194 -33 221 l-7 48 71 -7 c88
-9 112 2 112 49 0 56 -25 75 -110 86 -41 5 -141 10 -221 10 -129 0 -148 -2
-162 -18z"/>
<path d="M15453 20043 c9 -2 25 -2 35 0 9 3 1 5 -18 5 -19 0 -27 -2 -17 -5z"/>
<path d="M15967 20043 c248 -2 658 -2 910 0 252 1 49 2 -452 2 -500 0 -707 -1
-458 -2z"/>
<path d="M15490 19976 c0 -2 7 -7 16 -10 8 -3 12 -2 9 4 -6 10 -25 14 -25 6z"/>
<path d="M15595 19943 c30 -33 32 -47 6 -40 -14 3 -18 1 -14 -9 4 -10 10 -11
23 -4 15 8 20 5 28 -18 7 -18 11 -21 11 -9 1 21 -55 107 -70 107 -5 0 2 -12
16 -27z"/>
<path d="M15640 19796 c0 -8 4 -17 9 -20 5 -4 7 3 4 14 -6 23 -13 26 -13 6z"/>
<path d="M15635 19529 c-4 -6 -5 -12 -2 -15 2 -3 7 2 10 11 7 17 1 20 -8 4z"/>
<path d="M15626 19465 c4 -8 11 -15 16 -15 6 0 5 6 -2 15 -7 8 -14 15 -16 15
-2 0 -1 -7 2 -15z"/>
<path d="M15561 19407 c-29 -35 -30 -38 -7 -17 24 22 52 60 44 60 -2 0 -18
-19 -37 -43z"/>
<path d="M15611 19413 c-10 -26 -10 -27 4 -9 8 11 15 23 15 28 0 15 -7 8 -19
-19z"/>
<path d="M15638 19343 c6 -2 18 -2 25 0 6 3 1 5 -13 5 -14 0 -19 -2 -12 -5z"/>
<path d="M15613 19293 c9 -2 23 -2 30 0 6 3 -1 5 -18 5 -16 0 -22 -2 -12 -5z"/>
<path d="M17158 19293 c111 -2 293 -2 405 0 111 1 20 2 -203 2 -223 0 -314 -1
-202 -2z"/>
<path d="M14550 19235 c0 -40 3 -47 28 -56 66 -25 127 -121 164 -258 15 -58
20 -107 20 -211 0 -154 -19 -244 -72 -351 -35 -68 -57 -92 -107 -115 -30 -13
-33 -18 -33 -59 l0 -45 1221 2 1221 3 35 40 34 40 -1183 5 c-651 3 -1182 8
-1180 12 2 4 18 40 36 80 54 117 71 210 71 388 0 208 -20 293 -113 472 -2 5
530 9 1183 10 l1186 3 -34 40 -35 40 -1221 3 -1221 2 0 -45z"/>
<path d="M9774 16990 c3 -102 6 -275 7 -385 0 -109 3 -212 6 -227 l6 -28 287
0 287 0 6 122 c4 66 7 252 7 412 l0 291 -306 0 -307 0 7 -185z"/>
<path d="M15885 16805 c3 -203 8 -389 11 -412 l5 -43 288 0 288 0 6 128 c4 70
7 254 7 409 l0 282 -305 3 -305 3 5 -370z"/>
<path d="M30190 17065 c0 -7 91 -51 120 -59 14 -3 0 6 -30 22 -65 33 -90 43
-90 37z"/>
</g>
</svg>
