<svg viewBox="0 0 90 75" fill="#000000" xmlns="http://www.w3.org/2000/svg" xmlns:bx="https://boxy-svg.com">
  <defs>
    <style bx:fonts="Alfa Slab One">@import url(https://fonts.googleapis.com/css2?family=Alfa+Slab+One%3Aital%2Cwght%400%2C400&amp;display=swap);</style>
  </defs>
  <path d="M 2.451 1.943 C 0.881 1.943 -0.362 3.198 -0.325 4.735 L 0.287 30.418 C 0.324 31.956 1.787 33.363 3.358 33.363 L 7.451 33.364 C 7.995 36.149 10.506 38.274 13.475 38.274 C 16.443 38.275 18.854 36.15 19.264 33.365 L 28.514 33.366 C 30.08 33.367 31.328 32.114 31.291 30.576 L 30.676 4.801 C 30.639 3.228 29.346 1.947 27.795 1.946 L 2.451 1.943 Z M 32.773 8.82 L 33.358 33.367 C 33.905 36.148 36.506 38.277 39.475 38.278 C 42.443 38.278 44.854 36.149 45.264 33.368 L 47.358 33.369 C 48.928 33.369 50.325 31.966 50.288 30.424 L 50.062 20.973 C 50.016 18.999 48.517 16.981 48.336 16.739 L 44.049 11.276 C 43.069 10.149 41.542 8.821 39.773 8.821 L 32.773 8.82 Z M 37.89 13.731 L 43.483 13.731 L 46.77 17.905 C 47.121 18.377 48.035 19.822 48.062 20.973 L 48.078 21.587 L 38.078 21.586 C 37.078 21.586 36.053 20.603 36.03 19.621 L 35.936 15.693 C 35.91 14.608 36.89 13.731 37.89 13.731 Z M 13.241 28.455 C 15.448 28.456 17.283 30.217 17.335 32.384 C 17.386 34.551 15.636 36.311 13.429 36.31 C 11.222 36.31 9.386 34.55 9.335 32.383 C 9.283 30.216 11.034 28.455 13.241 28.455 Z M 39.241 28.459 C 41.448 28.459 43.284 30.22 43.335 32.387 C 43.386 34.554 41.636 36.314 39.429 36.314 C 37.222 36.313 35.386 34.553 35.335 32.386 C 35.283 30.219 37.034 28.458 39.241 28.459 Z" style="fill: rgb(255, 252, 252); transform-origin: 25.8126px 20.1039px;" transform="matrix(0.999967992306, 0.007984000258, -0.007984000258, 0.999967992306, -5.61e-9, 4.749e-9)"/>
  <text style="fill: rgb(255, 255, 255); font-family: 'Alfa Slab One'; font-size: 7px; white-space: pre; transform-origin: 10.4728px 19.4233px;" transform="matrix(1, -0.000817000109, 0.028087003157, 1.132454037666, 20.304991421347, 40.089707888054)" x="-13.34" y="7.335">TRUCKIA</text>
</svg>